<svg width="265" height="76" viewBox="0 0 265 76" fill="none" xmlns="http://www.w3.org/2000/svg">
<path fill-rule="evenodd" clip-rule="evenodd" d="M213.175 30.1213C204.271 18.4577 195.009 10.1095 181.37 10.1095V0C198.367 0 209.937 9.86938 219.144 21.3049C218.021 22.9429 216.911 24.5907 215.801 26.2381L215.798 26.2429C214.925 27.5375 214.053 28.832 213.175 30.1213ZM230.628 54.5658C233.163 57.8203 235.824 60.9101 238.667 63.6356C245.637 70.3194 254.093 75.2146 264.999 75.2146V65.1051C257.503 65.1051 251.424 61.8621 245.663 56.3386C242.473 53.2796 239.505 49.6459 236.552 45.6441L236.039 46.4284L236.039 46.429C234.281 49.1212 232.498 51.8531 230.628 54.5658ZM0 64.6636V73.9569H35.3776C44.6005 73.9569 52.556 72.3376 59.2443 69.099C65.9327 65.8605 71.0369 61.4603 74.5571 55.8984C78.0772 50.2662 79.8373 43.9651 79.8373 36.9952C79.8373 30.0252 78.0772 23.7593 74.5571 18.1975C71.0369 12.5652 65.9327 8.12981 59.2443 4.89126C52.556 1.65271 44.6005 0.0334313 35.3776 0.0334313H0V9.32666H35.3776C42.2772 9.32666 48.2614 10.5587 53.3305 13.0228C58.3995 15.4165 62.2717 18.7255 64.947 22.9497C67.6223 27.1035 68.96 31.7853 68.96 36.9952C68.96 42.205 67.6223 46.922 64.947 51.1462C62.2717 55.3 58.3995 58.609 53.3305 61.0731C48.2614 63.4668 42.2772 64.6636 35.3776 64.6636H0ZM107.764 70.9999C113.819 73.8161 121.317 75.2241 130.258 75.2241C143.564 75.2241 153.667 72.1264 160.566 65.9309C167.466 59.665 170.916 50.935 170.916 39.7409V0.0334313H160.038V39.4241C160.038 47.7317 157.539 54.1384 152.54 58.6442C147.542 63.15 140.114 65.4029 130.258 65.4029C123.64 65.4029 118.113 64.382 113.678 62.3403C109.242 60.2986 105.933 57.3417 103.751 53.4695C101.568 49.5973 100.477 44.9155 100.477 39.4241V0.0334313H89.5999V39.7409C89.5999 47.1332 91.1136 53.4695 94.1409 58.7498C97.1683 64.03 101.709 68.1134 107.764 70.9999ZM181.37 65.1051C198.787 65.1051 209.068 51.4911 220.578 34.7442C220.905 34.2676 221.234 33.7887 221.564 33.308C226.758 25.738 232.251 17.7307 238.667 11.5789C245.638 4.89519 254.093 0 265 0V10.1095C257.504 10.1095 251.424 13.3524 245.664 18.8759C240.027 24.2808 235.084 31.4795 229.69 39.3331C229.431 39.7107 229.171 40.0898 228.909 40.4703C218.046 56.2759 204.915 75.2146 181.37 75.2146V65.1051Z" fill="black"/>
</svg>
